<svg version="1.1" id="Layer_1" x="0px" y="0px" width="100%" viewBox="0 0 500 500" enable-background="new 0 0 500 500"><path fill="#F0F1F7" opacity="1.000000" stroke="none" d="
M266.799347,276.735474 
 C262.864441,278.927612 259.108276,280.736786 255.698853,283.055756 
 C252.337952,285.341766 249.379013,285.197449 245.997635,283.213287 
 C228.149963,272.740295 210.283966,262.296906 192.328278,252.010895 
 C188.430588,249.778091 186.844513,247.028549 186.892410,242.440857 
 C187.111633,221.451859 187.073929,200.458649 186.913544,179.468597 
 C186.883163,175.493317 188.137894,172.958176 191.607849,170.981659 
 C209.583496,160.742508 227.532303,150.452408 245.343262,139.930878 
 C249.130600,137.693573 252.294312,137.557922 255.983246,139.719086 
 C274.259674,150.426254 292.649139,160.943161 310.804321,171.850723 
 C312.785767,173.041183 314.446259,176.230347 314.650879,178.629333 
 C315.186981,184.914474 314.564301,191.291107 314.931274,197.600586 
 C315.179779,201.872940 313.830902,204.463058 309.820099,206.003586 
 C307.467560,206.907211 305.350006,208.422577 301.988800,210.297577 
 C301.988800,202.821426 301.760437,196.590073 302.053162,190.383286 
 C302.344543,184.205536 300.025848,180.303040 294.430817,177.273758 
 C281.334015,170.182892 268.545776,162.516693 255.713898,154.945709 
 C252.362534,152.968353 249.416458,152.789856 246.000534,154.808533 
 C232.461685,162.809433 218.866760,170.717651 205.208679,178.513153 
 C201.317459,180.734100 199.684814,183.610336 199.750305,188.186234 
 C199.974411,203.843185 199.970657,219.507248 199.747147,235.164230 
 C199.686523,239.410736 201.336044,242.100571 204.768845,244.077148 
 C218.250061,251.839523 231.781174,259.517029 245.185989,267.409119 
 C249.047836,269.682770 252.415726,269.866943 256.334259,267.538239 
 C269.995483,259.419708 283.869812,251.655212 297.421082,243.360718 
 C299.569214,242.045883 300.827606,238.830383 301.822693,236.234970 
 C302.492493,234.487900 301.986115,232.285660 301.986908,230.287048 
 C301.990936,219.911804 303.045502,218.499603 313.918335,214.908051 
 C314.233795,216.489380 314.778748,217.997314 314.795654,219.511154 
 C314.882996,227.340256 314.746948,235.172256 314.870605,243.000381 
 C314.935547,247.112915 313.214447,249.890991 309.705780,251.909363 
 C295.488708,260.087769 281.317871,268.346619 266.799347,276.735474 
z"></path><path fill="#F1F1F7" opacity="1.000000" stroke="none" d="
M292.907898,208.000290 
 C292.907867,216.166824 293.161469,223.847137 292.748077,231.491394 
 C292.629272,233.688156 291.133179,236.672134 289.335663,237.775970 
 C278.057434,244.701813 266.631805,251.415970 254.960190,257.648163 
 C252.696518,258.856903 248.601929,258.620392 246.259262,257.361725 
 C234.762009,251.184555 223.510788,244.537018 212.336334,237.784775 
 C210.631958,236.754913 208.773041,234.343781 208.708023,232.510406 
 C208.353775,222.523041 208.507614,212.516327 208.584396,202.517014 
 C208.592529,201.458588 209.237610,200.405045 209.809372,198.678131 
 C213.707428,200.859451 217.359619,202.661438 220.694763,204.929642 
 C221.593567,205.540939 221.820877,207.560349 221.855804,208.946030 
 C221.985947,214.109375 221.638931,219.299240 222.045334,224.433701 
 C222.199738,226.384354 223.425629,228.968231 224.990356,229.965103 
 C231.824997,234.319366 239.033188,238.082077 245.962814,242.294647 
 C249.532104,244.464447 252.639175,244.270706 256.115051,242.129944 
 C263.160309,237.790802 270.396454,233.761322 277.434937,229.411652 
 C278.596283,228.693970 279.853821,227.011719 279.878510,225.751953 
 C280.076569,215.634399 279.989288,205.511261 279.989288,194.673584 
 C271.629761,199.438873 263.659332,203.704163 255.998215,208.467041 
 C252.178833,210.841522 248.944672,210.520096 245.379486,208.428543 
 C235.682648,202.739777 225.952896,197.107117 216.243057,191.440460 
 C210.824493,188.278183 210.804184,185.731934 216.118378,182.643143 
 C225.699188,177.074463 235.320557,171.572617 244.818161,165.865097 
 C248.937408,163.389679 252.585083,163.042130 256.729584,165.958755 
 C260.613831,168.692261 264.938568,170.799835 269.096283,173.198334 
 C265.007050,179.225342 259.232361,181.245438 253.150513,179.343430 
 C251.781372,178.915237 249.939484,178.572845 248.784073,179.142273 
 C244.546570,181.230621 240.506638,183.719879 236.369522,186.071198 
 C241.695145,194.216644 250.303177,196.490799 257.887360,192.184647 
 C263.928589,188.754532 270.009003,185.378677 275.893738,181.694046 
 C278.810822,179.867554 280.990845,180.284775 284.071014,181.626038 
 C291.098877,184.686340 294.318542,189.209442 293.004150,197.017136 
 C292.431213,200.420502 292.907898,204.000549 292.907898,208.000290 
z"></path><path fill="#E9E9F0" opacity="1.000000" stroke="none" d="
M160.764633,335.141296 
 C158.293198,341.323273 153.017990,340.829895 147.712326,341.007355 
 C150.974792,345.819336 154.564529,348.766663 160.621948,347.173035 
 C160.621948,349.911804 160.621948,352.145111 160.621948,354.627014 
 C154.924179,355.751862 149.551971,355.677948 145.482162,350.053467 
 C143.654083,347.527069 141.247345,345.341919 138.813004,343.357941 
 C137.090042,341.953705 134.880005,341.147125 132.043549,339.619232 
 C132.043549,345.496887 132.043549,349.944458 132.043549,354.707458 
 C129.383270,354.707458 127.022285,354.707458 124.478622,354.707458 
 C124.478622,342.665375 124.478622,330.784851 124.478622,318.443756 
 C134.319565,318.443756 143.928375,318.233002 153.521271,318.532257 
 C158.352631,318.682983 160.839966,321.845673 160.952072,326.757568 
 C161.012695,329.414398 160.901245,332.075195 160.764633,335.141296 
M134.689270,333.058380 
 C140.759430,333.058380 146.829590,333.058380 153.047119,333.058380 
 C153.047119,330.540802 153.047119,328.484711 153.047119,326.252441 
 C145.996155,326.252441 139.141769,326.252441 131.141205,326.252441 
 C132.136932,328.870239 132.932480,330.961792 134.689270,333.058380 
z"></path><path fill="#EAEBF1" opacity="1.000000" stroke="none" d="
M304.879028,318.512146 
 C314.745972,318.442566 324.193420,318.442566 333.828674,318.442566 
 C333.828674,321.111328 333.828674,323.360535 333.828674,325.993256 
 C324.269897,325.993256 314.860840,325.993256 305.242065,325.993256 
 C305.242065,328.440674 305.242065,330.507782 305.242065,332.996857 
 C314.725861,332.996857 324.125946,332.996857 333.770264,332.996857 
 C333.770264,335.667389 333.770264,337.928894 333.770264,340.615662 
 C324.413361,340.615662 315.005432,340.615662 305.313629,340.615662 
 C305.313629,342.940399 305.313629,344.848572 305.313629,347.252563 
 C314.650635,347.252563 324.032318,347.252563 333.714600,347.252563 
 C333.714600,349.964813 333.714600,352.206604 333.714600,354.944550 
 C323.789642,354.944550 313.686005,355.255829 303.617737,354.794617 
 C299.464294,354.604370 297.654694,350.906921 297.568329,346.919159 
 C297.424255,340.268951 297.466797,333.612518 297.552490,326.960266 
 C297.611237,322.398865 299.850067,319.472473 304.879028,318.512146 
z"></path><path fill="#E8E8EF" opacity="1.000000" stroke="none" d="
M211.084106,322.298340 
 C210.724274,319.317078 211.621780,318.293549 214.339859,318.343567 
 C222.666824,318.496674 231.000885,318.278778 239.327148,318.450104 
 C244.885178,318.564484 247.771591,321.693787 247.840775,327.301636 
 C247.918884,333.631287 247.923065,339.963470 247.840515,346.292999 
 C247.763184,352.221802 244.884689,354.996704 238.893692,355.018860 
 C229.773529,355.052582 220.653152,355.027679 211.084045,355.027679 
 C211.084045,343.991730 211.084045,333.378601 211.084106,322.298340 
M240.090561,332.564789 
 C240.090561,330.469391 240.090561,328.373993 240.090561,326.245453 
 C232.751236,326.245453 225.989624,326.245453 219.142670,326.245453 
 C219.142670,333.364899 219.142670,340.263153 219.142670,347.178833 
 C226.187225,347.178833 232.939758,347.178833 240.090561,347.178833 
 C240.090561,342.485016 240.090561,338.018066 240.090561,332.564789 
z"></path><path fill="#EFF0F6" opacity="1.000000" stroke="none" d="
M204.013382,344.971130 
 C204.013382,348.440613 204.013382,351.415710 204.013382,354.701294 
 C201.608994,354.701294 199.383041,354.701294 196.757446,354.701294 
 C196.757446,350.364807 196.757446,345.942383 196.757446,341.157043 
 C189.496109,341.157043 182.596634,341.157043 175.198395,341.157043 
 C175.198395,345.439331 175.198395,349.993622 175.198395,354.776428 
 C172.466751,354.776428 170.221603,354.776428 167.618530,354.776428 
 C167.618530,345.099426 167.413177,335.483551 167.706177,325.882843 
 C167.850128,321.166138 170.897369,318.645325 176.044128,318.484100 
 C182.684448,318.276154 189.342743,318.253448 195.981110,318.491211 
 C201.560165,318.691010 203.967316,321.456818 204.004623,327.028625 
 C204.043579,332.844421 204.013367,338.660675 204.013382,344.971130 
M179.635757,326.002106 
 C178.196182,326.002106 176.756607,326.002106 175.190598,326.002106 
 C175.190598,328.526733 175.190598,330.591705 175.190598,332.744385 
 C182.359985,332.744385 189.338120,332.744385 196.262726,332.744385 
 C196.262726,330.337830 196.262726,328.279175 196.262726,326.002106 
 C190.834091,326.002106 185.721497,326.002106 179.635757,326.002106 
z"></path><path fill="#E7E8EE" opacity="1.000000" stroke="none" d="
M377.665894,323.862366 
 C377.365387,324.819550 376.996460,325.838989 376.784515,325.807373 
 C367.853607,324.473572 365.167389,332.598724 358.690125,337.116302 
 C362.246918,340.361450 365.231354,343.212006 368.375397,345.874023 
 C369.302948,346.659424 370.759094,347.467926 371.840546,347.316986 
 C377.963409,346.462280 378.382965,349.818024 377.348785,354.648376 
 C371.330048,355.666565 365.752106,355.670441 361.537079,349.878937 
 C359.601471,347.219452 357.004364,344.988983 354.477173,342.833679 
 C353.130524,341.685211 351.293671,341.111481 348.836578,339.844421 
 C348.836578,345.458252 348.836578,349.879517 348.836578,354.663147 
 C346.184174,354.663147 343.951935,354.663147 341.344666,354.663147 
 C341.344666,342.914215 341.344666,330.887085 341.344666,318.868408 
 C348.656921,317.878967 348.657074,317.878967 348.658356,324.896637 
 C348.658813,327.380493 348.658417,329.864319 348.658417,333.647736 
 C350.981842,332.651093 352.985840,332.275177 354.318604,331.122894 
 C357.460052,328.406769 360.445526,325.464478 363.185425,322.342712 
 C365.825348,319.334869 368.879852,318.383942 372.826172,318.255798 
 C376.994263,318.120483 378.260437,319.638672 377.665894,323.862366 
z"></path><path fill="#E6E6ED" opacity="1.000000" stroke="none" d="
M290.965332,320.309509 
 C290.975159,322.382965 290.975159,324.003296 290.975159,325.943909 
 C286.174744,325.943909 281.739990,325.943909 276.846985,325.943909 
 C276.846985,335.634644 276.846985,345.001984 276.846985,354.696320 
 C274.152222,354.696320 271.913361,354.696320 269.285034,354.696320 
 C269.285034,345.551208 269.285034,336.154358 269.285034,326.229523 
 C264.223419,326.229523 259.509338,326.229523 254.514313,326.229523 
 C254.514313,323.474152 254.514313,321.235962 254.514313,318.473419 
 C266.283417,318.473419 278.032867,318.459991 289.781769,318.531616 
 C290.175690,318.533997 290.564392,319.395386 290.965332,320.309509 
z"></path></svg>